<?xml version="1.0" encoding="UTF-8"?>
<svg xmlns="http://www.w3.org/2000/svg" width="420" height="190" role="img" aria-label="Top languages: TypeScript 21.4%, JavaScript 21.1%, HTML 14.7%, Swift 14.1%, Java 10.8%, Python 5.1%">
  <style>text { font-family: -apple-system, BlinkMacSystemFont, "Segoe UI", sans-serif; }</style>
  <rect width="420" height="190" rx="18" fill="#0d1117"/>
  <text x="28" y="35" font-size="23" font-weight="800" fill="#e6edf3">Top languages</text>
  <text x="28" y="56" font-size="12" fill="#8b949e">51 owned public repos • excluding forks and archives</text>
  <clipPath id="language-bar"><rect x="28" y="70" width="364" height="10" rx="5"/></clipPath>
  <g clip-path="url(#language-bar)">
    <rect x="28" y="70" width="364" height="10" fill="#30363d"/>
    <rect x="28.00" y="70" width="77.92" height="10" fill="#3178c6"/>
    <rect x="105.92" y="70" width="76.73" height="10" fill="#f1e05a"/>
    <rect x="182.65" y="70" width="53.51" height="10" fill="#e34c26"/>
    <rect x="236.16" y="70" width="51.20" height="10" fill="#f05138"/>
    <rect x="287.37" y="70" width="39.27" height="10" fill="#b07219"/>
    <rect x="326.64" y="70" width="18.59" height="10" fill="#3572a5"/>
    <rect x="345.23" y="70" width="17.57" height="10" fill="#701516"/>
    <rect x="362.80" y="70" width="12.97" height="10" fill="#dea584"/>
    <rect x="375.77" y="70" width="10.68" height="10" fill="#563d7c"/>
    <rect x="386.46" y="70" width="2.78" height="10" fill="#89e051"/>
  </g>
  <circle cx="32" cy="103" r="5" fill="#3178c6"/>
  <text x="44" y="108" font-size="13" font-weight="600" fill="#e6edf3">TypeScript</text>
  <text x="191" y="108" text-anchor="end" font-size="12" fill="#8b949e">21%</text>
  <circle cx="226" cy="103" r="5" fill="#f1e05a"/>
  <text x="238" y="108" font-size="13" font-weight="600" fill="#e6edf3">JavaScript</text>
  <text x="385" y="108" text-anchor="end" font-size="12" fill="#8b949e">21%</text>
  <circle cx="32" cy="130" r="5" fill="#e34c26"/>
  <text x="44" y="135" font-size="13" font-weight="600" fill="#e6edf3">HTML</text>
  <text x="191" y="135" text-anchor="end" font-size="12" fill="#8b949e">15%</text>
  <circle cx="226" cy="130" r="5" fill="#f05138"/>
  <text x="238" y="135" font-size="13" font-weight="600" fill="#e6edf3">Swift</text>
  <text x="385" y="135" text-anchor="end" font-size="12" fill="#8b949e">14%</text>
  <circle cx="32" cy="157" r="5" fill="#b07219"/>
  <text x="44" y="162" font-size="13" font-weight="600" fill="#e6edf3">Java</text>
  <text x="191" y="162" text-anchor="end" font-size="12" fill="#8b949e">11%</text>
  <circle cx="226" cy="157" r="5" fill="#3572a5"/>
  <text x="238" y="162" font-size="13" font-weight="600" fill="#e6edf3">Python</text>
  <text x="385" y="162" text-anchor="end" font-size="12" fill="#8b949e">5.1%</text>
</svg>
