<?xml version="1.0" encoding="UTF-8"?>
<svg xmlns="http://www.w3.org/2000/svg" width="420" height="190" role="img" aria-label="Top languages: Swift 20.8%, HTML 18.4%, JavaScript 17.9%, TypeScript 17.5%, Python 9.0%, Java 6.9%">
  <style>text { font-family: -apple-system, BlinkMacSystemFont, "Segoe UI", sans-serif; }</style>
  <rect width="420" height="190" rx="18" fill="#0d1117"/>
  <text x="28" y="35" font-size="23" font-weight="800" fill="#e6edf3">Top languages</text>
  <text x="28" y="56" font-size="12" fill="#8b949e">41 owned public repos • excluding forks and archives</text>
  <clipPath id="language-bar"><rect x="28" y="70" width="364" height="10" rx="5"/></clipPath>
  <g clip-path="url(#language-bar)">
    <rect x="28" y="70" width="364" height="10" fill="#30363d"/>
    <rect x="28.00" y="70" width="75.85" height="10" fill="#f05138"/>
    <rect x="103.85" y="70" width="67.04" height="10" fill="#e34c26"/>
    <rect x="170.89" y="70" width="65.18" height="10" fill="#f1e05a"/>
    <rect x="236.07" y="70" width="63.64" height="10" fill="#3178c6"/>
    <rect x="299.71" y="70" width="32.84" height="10" fill="#3572a5"/>
    <rect x="332.55" y="70" width="25.06" height="10" fill="#b07219"/>
    <rect x="357.61" y="70" width="19.64" height="10" fill="#dea584"/>
    <rect x="377.25" y="70" width="7.80" height="10" fill="#563d7c"/>
    <rect x="385.05" y="70" width="3.07" height="10" fill="#89e051"/>
    <rect x="388.13" y="70" width="2.60" height="10" fill="#701516"/>
  </g>
  <circle cx="32" cy="103" r="5" fill="#f05138"/>
  <text x="44" y="108" font-size="13" font-weight="600" fill="#e6edf3">Swift</text>
  <text x="191" y="108" text-anchor="end" font-size="12" fill="#8b949e">21%</text>
  <circle cx="226" cy="103" r="5" fill="#e34c26"/>
  <text x="238" y="108" font-size="13" font-weight="600" fill="#e6edf3">HTML</text>
  <text x="385" y="108" text-anchor="end" font-size="12" fill="#8b949e">18%</text>
  <circle cx="32" cy="130" r="5" fill="#f1e05a"/>
  <text x="44" y="135" font-size="13" font-weight="600" fill="#e6edf3">JavaScript</text>
  <text x="191" y="135" text-anchor="end" font-size="12" fill="#8b949e">18%</text>
  <circle cx="226" cy="130" r="5" fill="#3178c6"/>
  <text x="238" y="135" font-size="13" font-weight="600" fill="#e6edf3">TypeScript</text>
  <text x="385" y="135" text-anchor="end" font-size="12" fill="#8b949e">17%</text>
  <circle cx="32" cy="157" r="5" fill="#3572a5"/>
  <text x="44" y="162" font-size="13" font-weight="600" fill="#e6edf3">Python</text>
  <text x="191" y="162" text-anchor="end" font-size="12" fill="#8b949e">9.0%</text>
  <circle cx="226" cy="157" r="5" fill="#b07219"/>
  <text x="238" y="162" font-size="13" font-weight="600" fill="#e6edf3">Java</text>
  <text x="385" y="162" text-anchor="end" font-size="12" fill="#8b949e">6.9%</text>
</svg>
