<?xml version="1.0" encoding="UTF-8"?>
<svg xmlns="http://www.w3.org/2000/svg" width="420" height="190" role="img" aria-label="Top languages: TypeScript 27.5%, Swift 17.1%, JavaScript 15.8%, Java 13.8%, Ruby 6.6%, Python 5.5%">
  <style>text { font-family: -apple-system, BlinkMacSystemFont, "Segoe UI", sans-serif; }</style>
  <rect width="420" height="190" rx="18" fill="#0d1117"/>
  <text x="28" y="35" font-size="23" font-weight="800" fill="#e6edf3">Top languages</text>
  <text x="28" y="56" font-size="12" fill="#8b949e">48 owned, non-fork public repos</text>
  <clipPath id="language-bar"><rect x="28" y="70" width="364" height="10" rx="5"/></clipPath>
  <g clip-path="url(#language-bar)">
    <rect x="28" y="70" width="364" height="10" fill="#30363d"/>
    <rect x="28.00" y="70" width="100.22" height="10" fill="#3178c6"/>
    <rect x="128.22" y="70" width="62.08" height="10" fill="#f05138"/>
    <rect x="190.30" y="70" width="57.60" height="10" fill="#f1e05a"/>
    <rect x="247.89" y="70" width="50.08" height="10" fill="#b07219"/>
    <rect x="297.97" y="70" width="24.03" height="10" fill="#701516"/>
    <rect x="322.00" y="70" width="20.20" height="10" fill="#3572a5"/>
    <rect x="342.19" y="70" width="17.74" height="10" fill="#dea584"/>
    <rect x="359.93" y="70" width="16.11" height="10" fill="#e34c26"/>
    <rect x="376.04" y="70" width="9.52" height="10" fill="#563d7c"/>
    <rect x="385.55" y="70" width="3.21" height="10" fill="#89e051"/>
  </g>
  <circle cx="32" cy="103" r="5" fill="#3178c6"/>
  <text x="44" y="108" font-size="13" font-weight="600" fill="#e6edf3">TypeScript</text>
  <text x="191" y="108" text-anchor="end" font-size="12" fill="#8b949e">28%</text>
  <circle cx="226" cy="103" r="5" fill="#f05138"/>
  <text x="238" y="108" font-size="13" font-weight="600" fill="#e6edf3">Swift</text>
  <text x="385" y="108" text-anchor="end" font-size="12" fill="#8b949e">17%</text>
  <circle cx="32" cy="130" r="5" fill="#f1e05a"/>
  <text x="44" y="135" font-size="13" font-weight="600" fill="#e6edf3">JavaScript</text>
  <text x="191" y="135" text-anchor="end" font-size="12" fill="#8b949e">16%</text>
  <circle cx="226" cy="130" r="5" fill="#b07219"/>
  <text x="238" y="135" font-size="13" font-weight="600" fill="#e6edf3">Java</text>
  <text x="385" y="135" text-anchor="end" font-size="12" fill="#8b949e">14%</text>
  <circle cx="32" cy="157" r="5" fill="#701516"/>
  <text x="44" y="162" font-size="13" font-weight="600" fill="#e6edf3">Ruby</text>
  <text x="191" y="162" text-anchor="end" font-size="12" fill="#8b949e">6.6%</text>
  <circle cx="226" cy="157" r="5" fill="#3572a5"/>
  <text x="238" y="162" font-size="13" font-weight="600" fill="#e6edf3">Python</text>
  <text x="385" y="162" text-anchor="end" font-size="12" fill="#8b949e">5.5%</text>
</svg>
